G04 Layer_Color=16711935*
%FSLAX25Y25*%
%MOIN*%
G70*
G01*
G75*
%ADD19R,0.08500X0.08500*%
%ADD20C,0.08500*%
%ADD31C,0.12700*%
%ADD32C,0.06600*%
%ADD33R,0.06600X0.06600*%
%ADD34R,0.06600X0.06600*%
%ADD35R,0.08500X0.08500*%
%ADD36R,0.09300X0.09300*%
%ADD37C,0.09300*%
%ADD38O,0.04737X0.08674*%
%ADD39R,0.04737X0.08674*%
%ADD40C,0.07099*%
%ADD41R,0.07099X0.07099*%
%ADD42C,0.00800*%
D19*
X308012Y237000D02*
D03*
D20*
X283500Y230000D02*
D03*
Y205000D02*
D03*
Y170000D02*
D03*
Y145000D02*
D03*
X158500Y230000D02*
D03*
Y145000D02*
D03*
X499500Y191000D02*
D03*
X360000Y178000D02*
D03*
Y192500D02*
D03*
Y163500D02*
D03*
X308012Y267000D02*
D03*
D31*
X507000Y110000D02*
D03*
Y265000D02*
D03*
X110000Y110000D02*
D03*
Y265000D02*
D03*
D32*
X388000Y260500D02*
D03*
X418000D02*
D03*
X466300Y261000D02*
D03*
X496300D02*
D03*
X356000Y262500D02*
D03*
Y242500D02*
D03*
X434000Y260000D02*
D03*
X454000D02*
D03*
X434000Y232500D02*
D03*
X454000D02*
D03*
X442500Y115000D02*
D03*
X422500D02*
D03*
X310000Y194000D02*
D03*
Y214000D02*
D03*
X337000Y147000D02*
D03*
X357000D02*
D03*
X458800Y111300D02*
D03*
X488800D02*
D03*
X355500Y228500D02*
D03*
X325500D02*
D03*
X466300Y253000D02*
D03*
X496300D02*
D03*
X458800Y119300D02*
D03*
X488800D02*
D03*
X355500Y220500D02*
D03*
X325500D02*
D03*
Y212500D02*
D03*
X355500D02*
D03*
X441000Y143500D02*
D03*
Y173500D02*
D03*
X488800Y127300D02*
D03*
X458800D02*
D03*
X379000Y150500D02*
D03*
Y180500D02*
D03*
X325500Y204000D02*
D03*
X355500D02*
D03*
X432000Y143500D02*
D03*
Y173500D02*
D03*
X450000Y143500D02*
D03*
Y173500D02*
D03*
X421500Y185000D02*
D03*
X391500D02*
D03*
X390000Y232500D02*
D03*
Y222500D02*
D03*
Y212500D02*
D03*
X420000Y242500D02*
D03*
Y232500D02*
D03*
Y222500D02*
D03*
Y212500D02*
D03*
X470000Y232500D02*
D03*
Y222500D02*
D03*
Y212500D02*
D03*
X500000Y242500D02*
D03*
Y232500D02*
D03*
Y222500D02*
D03*
Y212500D02*
D03*
X470000Y164500D02*
D03*
Y154500D02*
D03*
Y144500D02*
D03*
X500000Y174500D02*
D03*
Y164500D02*
D03*
Y154500D02*
D03*
Y144500D02*
D03*
X390000Y164000D02*
D03*
Y154000D02*
D03*
Y144000D02*
D03*
X420000Y174000D02*
D03*
Y164000D02*
D03*
Y154000D02*
D03*
Y144000D02*
D03*
D33*
X329500Y252500D02*
D03*
D34*
X306000Y118500D02*
D03*
Y142250D02*
D03*
Y166000D02*
D03*
X390000Y242500D02*
D03*
X470000D02*
D03*
Y174500D02*
D03*
X390000Y174000D02*
D03*
D35*
X469500Y191000D02*
D03*
X330000Y178000D02*
D03*
Y192500D02*
D03*
Y163500D02*
D03*
D36*
X120000Y150000D02*
D03*
D37*
Y130000D02*
D03*
D38*
X434000Y207000D02*
D03*
X439000D02*
D03*
D39*
X444000D02*
D03*
D40*
X381500Y116000D02*
D03*
X391500D02*
D03*
X337000D02*
D03*
X347000D02*
D03*
D41*
X401500D02*
D03*
X357000D02*
D03*
D42*
X329500Y242500D02*
D03*
X316000Y118500D02*
D03*
Y142250D02*
D03*
Y166000D02*
D03*
M02*
