G04 Layer_Color=65535*
%FSLAX25Y25*%
%MOIN*%
G70*
G01*
G75*
%ADD11C,0.01000*%
%ADD25C,0.00787*%
%ADD26C,0.00800*%
%ADD27C,0.00591*%
%ADD28R,0.03150X0.11024*%
%ADD29R,0.03150X0.11024*%
%ADD30R,0.11024X0.03150*%
D11*
X339500Y247500D02*
G03*
X339500Y247500I-10000J0D01*
G01*
X321000Y118500D02*
G03*
X321000Y118500I-10000J0D01*
G01*
Y142250D02*
G03*
X321000Y142250I-10000J0D01*
G01*
Y166000D02*
G03*
X321000Y166000I-10000J0D01*
G01*
X402500Y247500D02*
G03*
X407500Y247500I2500J0D01*
G01*
X482500D02*
G03*
X487500Y247500I2500J0D01*
G01*
X482500Y179500D02*
G03*
X487500Y179500I2500J0D01*
G01*
X402500Y179000D02*
G03*
X407500Y179000I2500J0D01*
G01*
X145500Y106500D02*
X296500D01*
X145500Y268500D02*
X296500D01*
Y106500D02*
Y268500D01*
X145500Y106500D02*
Y268500D01*
X335500Y249500D02*
Y253500D01*
X333500Y251500D02*
X337500D01*
X305000Y124500D02*
X309000D01*
X307000Y122500D02*
Y126500D01*
X305000Y148250D02*
X309000D01*
X307000Y146250D02*
Y150250D01*
X305000Y172000D02*
X309000D01*
X307000Y170000D02*
Y174000D01*
X136000Y120000D02*
Y160000D01*
X104000Y120000D02*
X136000D01*
X104000D02*
Y160000D01*
X136000D01*
X397900Y247500D02*
X402500D01*
X407500D02*
X412100D01*
Y207500D02*
Y247500D01*
X397900Y207500D02*
X412100D01*
X397900D02*
Y247500D01*
X477900D02*
X482500D01*
X487500D02*
X492100D01*
Y207500D02*
Y247500D01*
X477900Y207500D02*
X492100D01*
X477900D02*
Y247500D01*
Y179500D02*
X482500D01*
X487500D02*
X492100D01*
Y139500D02*
Y179500D01*
X477900Y139500D02*
X492100D01*
X477900D02*
Y179500D01*
X397900Y179000D02*
X402500D01*
X407500D02*
X412100D01*
Y139000D02*
Y179000D01*
X397900Y139000D02*
X412100D01*
X397900D02*
Y179000D01*
D25*
X430934Y213302D02*
G03*
X447066Y213302I8066J-6302D01*
G01*
X413000Y260500D02*
X413900D01*
X392100D02*
X393000D01*
X413000Y257500D02*
Y260500D01*
X393000Y257500D02*
X413000D01*
X393000D02*
Y263500D01*
X413000D01*
Y260500D02*
Y263500D01*
X491300Y261000D02*
X492200D01*
X470400D02*
X471300D01*
X491300Y258000D02*
Y261000D01*
X471300Y258000D02*
X491300D01*
X471300D02*
Y264000D01*
X491300D01*
Y261000D02*
Y264000D01*
X363500Y235000D02*
Y270000D01*
X348500D02*
X363500D01*
X348500Y235000D02*
Y270000D01*
Y235000D02*
X363500D01*
X426500Y267500D02*
X461500D01*
X426500Y252500D02*
Y267500D01*
Y252500D02*
X461500D01*
Y267500D01*
X426500Y240000D02*
X461500D01*
X426500Y225000D02*
Y240000D01*
Y225000D02*
X461500D01*
Y240000D01*
X415000Y107500D02*
X450000D01*
Y122500D01*
X415000D02*
X450000D01*
X415000Y107500D02*
Y122500D01*
X302500Y186500D02*
Y221500D01*
Y186500D02*
X317500D01*
Y221500D01*
X302500D02*
X317500D01*
X329500Y154500D02*
X364500D01*
X329500Y139500D02*
Y154500D01*
Y139500D02*
X364500D01*
Y154500D01*
X474067Y196512D02*
X494933D01*
X474067Y185488D02*
X494933D01*
Y196512D01*
X334567Y183512D02*
X355433D01*
X334567Y172488D02*
X355433D01*
Y183512D01*
X334567Y198012D02*
X355433D01*
X334567Y186988D02*
X355433D01*
Y198012D01*
X334567Y169012D02*
X355433D01*
X334567Y157988D02*
X355433D01*
Y169012D01*
X302500Y241567D02*
Y262433D01*
X313524Y241567D02*
Y262433D01*
X302500D02*
X313524D01*
X431165Y213299D02*
X446835D01*
X483800Y111300D02*
X484700D01*
X462900D02*
X463800D01*
X483800Y108300D02*
Y111300D01*
X463800Y108300D02*
X483800D01*
X463800D02*
Y114300D01*
X483800D01*
Y111300D02*
Y114300D01*
X329600Y228500D02*
X330500D01*
X350500D02*
X351400D01*
X330500D02*
Y231500D01*
X350500D01*
Y225500D02*
Y231500D01*
X330500Y225500D02*
X350500D01*
X330500D02*
Y228500D01*
X491300Y253000D02*
X492200D01*
X470400D02*
X471300D01*
X491300Y250000D02*
Y253000D01*
X471300Y250000D02*
X491300D01*
X471300D02*
Y256000D01*
X491300D01*
Y253000D02*
Y256000D01*
X483800Y119300D02*
X484700D01*
X462900D02*
X463800D01*
X483800Y116300D02*
Y119300D01*
X463800Y116300D02*
X483800D01*
X463800D02*
Y122300D01*
X483800D01*
Y119300D02*
Y122300D01*
X329600Y220500D02*
X330500D01*
X350500D02*
X351400D01*
X330500D02*
Y223500D01*
X350500D01*
Y217500D02*
Y223500D01*
X330500Y217500D02*
X350500D01*
X330500D02*
Y220500D01*
X350500Y212500D02*
X351400D01*
X329600D02*
X330500D01*
X350500Y209500D02*
Y212500D01*
X330500Y209500D02*
X350500D01*
X330500D02*
Y215500D01*
X350500D01*
Y212500D02*
Y215500D01*
X441000Y168500D02*
Y169400D01*
Y147600D02*
Y148500D01*
Y168500D02*
X444000D01*
Y148500D02*
Y168500D01*
X438000Y148500D02*
X444000D01*
X438000D02*
Y168500D01*
X441000D01*
X462900Y127300D02*
X463800D01*
X483800D02*
X484700D01*
X463800D02*
Y130300D01*
X483800D01*
Y124300D02*
Y130300D01*
X463800Y124300D02*
X483800D01*
X463800D02*
Y127300D01*
X379000Y175500D02*
Y176400D01*
Y154600D02*
Y155500D01*
Y175500D02*
X382000D01*
Y155500D02*
Y175500D01*
X376000Y155500D02*
X382000D01*
X376000D02*
Y175500D01*
X379000D01*
X350500Y204000D02*
X351400D01*
X329600D02*
X330500D01*
X350500Y201000D02*
Y204000D01*
X330500Y201000D02*
X350500D01*
X330500D02*
Y207000D01*
X350500D01*
Y204000D02*
Y207000D01*
X432000Y168500D02*
Y169400D01*
Y147600D02*
Y148500D01*
Y168500D02*
X435000D01*
Y148500D02*
Y168500D01*
X429000Y148500D02*
X435000D01*
X429000D02*
Y168500D01*
X432000D01*
X450000D02*
Y169400D01*
Y147600D02*
Y148500D01*
Y168500D02*
X453000D01*
Y148500D02*
Y168500D01*
X447000Y148500D02*
X453000D01*
X447000D02*
Y168500D01*
X450000D01*
X395600Y185000D02*
X396500D01*
X416500D02*
X417400D01*
X396500D02*
Y188000D01*
X416500D01*
Y182000D02*
Y188000D01*
X396500Y182000D02*
X416500D01*
X396500D02*
Y185000D01*
X370437Y107142D02*
Y126039D01*
X412563Y107142D02*
Y126039D01*
X370437D02*
X412563D01*
X370437Y107142D02*
X412563D01*
X370437Y109110D02*
X412563D01*
X325937Y107142D02*
Y126039D01*
X368063Y107142D02*
Y126039D01*
X325937D02*
X368063D01*
X325937Y107142D02*
X368063D01*
X325937Y109110D02*
X368063D01*
D26*
X399000Y258800D02*
Y262799D01*
X400999D01*
X401666Y262132D01*
Y260799D01*
X400999Y260133D01*
X399000D01*
X400333D02*
X401666Y258800D01*
X402999D02*
X404332D01*
X403665D01*
Y262799D01*
X402999Y262132D01*
X406331Y258800D02*
X407664D01*
X406997D01*
Y262799D01*
X406331Y262132D01*
X476700Y259000D02*
Y262999D01*
X478699D01*
X479366Y262332D01*
Y260999D01*
X478699Y260333D01*
X476700D01*
X478033D02*
X479366Y259000D01*
X483364Y262999D02*
X480699D01*
Y260999D01*
X482032Y261666D01*
X482698D01*
X483364Y260999D01*
Y259666D01*
X482698Y259000D01*
X481365D01*
X480699Y259666D01*
X135000Y263999D02*
X137666D01*
X136333D01*
Y260000D01*
X138999D02*
X140332D01*
X139665D01*
Y263999D01*
X138999Y263332D01*
X342166Y267332D02*
X341499Y267999D01*
X340166D01*
X339500Y267332D01*
Y264666D01*
X340166Y264000D01*
X341499D01*
X342166Y264666D01*
X343499Y264000D02*
X344832D01*
X344165D01*
Y267999D01*
X343499Y267332D01*
X444166Y262932D02*
X443499Y263599D01*
X442166D01*
X441500Y262932D01*
Y260266D01*
X442166Y259600D01*
X443499D01*
X444166Y260266D01*
X448165Y259600D02*
X445499D01*
X448165Y262266D01*
Y262932D01*
X447498Y263599D01*
X446165D01*
X445499Y262932D01*
X429566Y246532D02*
X428899Y247199D01*
X427566D01*
X426900Y246532D01*
Y243866D01*
X427566Y243200D01*
X428899D01*
X429566Y243866D01*
X430899Y246532D02*
X431565Y247199D01*
X432898D01*
X433565Y246532D01*
Y245866D01*
X432898Y245199D01*
X432232D01*
X432898D01*
X433565Y244533D01*
Y243866D01*
X432898Y243200D01*
X431565D01*
X430899Y243866D01*
X418066Y129032D02*
X417399Y129699D01*
X416066D01*
X415400Y129032D01*
Y126366D01*
X416066Y125700D01*
X417399D01*
X418066Y126366D01*
X421398Y125700D02*
Y129699D01*
X419399Y127699D01*
X422064D01*
X328666Y264832D02*
X327999Y265499D01*
X326666D01*
X326000Y264832D01*
Y262166D01*
X326666Y261500D01*
X327999D01*
X328666Y262166D01*
X332664Y265499D02*
X329999D01*
Y263499D01*
X331332Y264166D01*
X331998D01*
X332664Y263499D01*
Y262166D01*
X331998Y261500D01*
X330665D01*
X329999Y262166D01*
X305566Y228032D02*
X304899Y228699D01*
X303566D01*
X302900Y228032D01*
Y225366D01*
X303566Y224700D01*
X304899D01*
X305566Y225366D01*
X309564Y228699D02*
X308232Y228032D01*
X306899Y226699D01*
Y225366D01*
X307565Y224700D01*
X308898D01*
X309564Y225366D01*
Y226033D01*
X308898Y226699D01*
X306899D01*
X373166Y145832D02*
X372499Y146499D01*
X371166D01*
X370500Y145832D01*
Y143166D01*
X371166Y142500D01*
X372499D01*
X373166Y143166D01*
X374499Y146499D02*
X377165D01*
Y145832D01*
X374499Y143166D01*
Y142500D01*
X301166Y132332D02*
X300499Y132999D01*
X299166D01*
X298500Y132332D01*
Y129666D01*
X299166Y129000D01*
X300499D01*
X301166Y129666D01*
X302499Y132332D02*
X303165Y132999D01*
X304498D01*
X305165Y132332D01*
Y131666D01*
X304498Y130999D01*
X305165Y130333D01*
Y129666D01*
X304498Y129000D01*
X303165D01*
X302499Y129666D01*
Y130333D01*
X303165Y130999D01*
X302499Y131666D01*
Y132332D01*
X303165Y130999D02*
X304498D01*
X301166Y156082D02*
X300499Y156749D01*
X299166D01*
X298500Y156082D01*
Y153417D01*
X299166Y152750D01*
X300499D01*
X301166Y153417D01*
X302499D02*
X303165Y152750D01*
X304498D01*
X305165Y153417D01*
Y156082D01*
X304498Y156749D01*
X303165D01*
X302499Y156082D01*
Y155416D01*
X303165Y154749D01*
X305165D01*
X301166Y179832D02*
X300499Y180499D01*
X299166D01*
X298500Y179832D01*
Y177166D01*
X299166Y176500D01*
X300499D01*
X301166Y177166D01*
X302499Y176500D02*
X303832D01*
X303165D01*
Y180499D01*
X302499Y179832D01*
X305831D02*
X306497Y180499D01*
X307830D01*
X308497Y179832D01*
Y177166D01*
X307830Y176500D01*
X306497D01*
X305831Y177166D01*
Y179832D01*
X466100Y203699D02*
Y199700D01*
X468099D01*
X468766Y200366D01*
Y203032D01*
X468099Y203699D01*
X466100D01*
X470099Y199700D02*
X471432D01*
X470765D01*
Y203699D01*
X470099Y203032D01*
X367500Y179749D02*
Y175750D01*
X369499D01*
X370166Y176417D01*
Y179082D01*
X369499Y179749D01*
X367500D01*
X374165Y175750D02*
X371499D01*
X374165Y178416D01*
Y179082D01*
X373498Y179749D01*
X372165D01*
X371499Y179082D01*
X367500Y193499D02*
Y189500D01*
X369499D01*
X370166Y190166D01*
Y192832D01*
X369499Y193499D01*
X367500D01*
X371499Y192832D02*
X372165Y193499D01*
X373498D01*
X374165Y192832D01*
Y192166D01*
X373498Y191499D01*
X372832D01*
X373498D01*
X374165Y190833D01*
Y190166D01*
X373498Y189500D01*
X372165D01*
X371499Y190166D01*
X367500Y165999D02*
Y162000D01*
X369499D01*
X370166Y162666D01*
Y165332D01*
X369499Y165999D01*
X367500D01*
X373498Y162000D02*
Y165999D01*
X371499Y163999D01*
X374165D01*
X318000Y269499D02*
Y265500D01*
X319999D01*
X320666Y266166D01*
Y268832D01*
X319999Y269499D01*
X318000D01*
X324664D02*
X321999D01*
Y267499D01*
X323332Y268166D01*
X323998D01*
X324664Y267499D01*
Y266166D01*
X323998Y265500D01*
X322665D01*
X321999Y266166D01*
X104300Y163300D02*
Y167299D01*
X106299D01*
X106966Y166632D01*
Y165299D01*
X106299Y164633D01*
X104300D01*
X108299Y163300D02*
X109632D01*
X108965D01*
Y167299D01*
X108299Y166632D01*
X417166Y196667D02*
Y199332D01*
X416499Y199999D01*
X415166D01*
X414500Y199332D01*
Y196667D01*
X415166Y196000D01*
X416499D01*
X415833Y197333D02*
X417166Y196000D01*
X416499D02*
X417166Y196667D01*
X418499Y196000D02*
X419832D01*
X419165D01*
Y199999D01*
X418499Y199332D01*
X469000Y109600D02*
Y113599D01*
X470999D01*
X471666Y112932D01*
Y111599D01*
X470999Y110933D01*
X469000D01*
X470333D02*
X471666Y109600D01*
X472999D02*
X474332D01*
X473665D01*
Y113599D01*
X472999Y112932D01*
X361500Y226500D02*
Y230499D01*
X363499D01*
X364166Y229832D01*
Y228499D01*
X363499Y227833D01*
X361500D01*
X362833D02*
X364166Y226500D01*
X368164D02*
X365499D01*
X368164Y229166D01*
Y229832D01*
X367498Y230499D01*
X366165D01*
X365499Y229832D01*
X476700Y250900D02*
Y254899D01*
X478699D01*
X479366Y254232D01*
Y252899D01*
X478699Y252233D01*
X476700D01*
X478033D02*
X479366Y250900D01*
X480699Y254232D02*
X481365Y254899D01*
X482698D01*
X483364Y254232D01*
Y253566D01*
X482698Y252899D01*
X482032D01*
X482698D01*
X483364Y252233D01*
Y251566D01*
X482698Y250900D01*
X481365D01*
X480699Y251566D01*
X469000Y117600D02*
Y121599D01*
X470999D01*
X471666Y120932D01*
Y119599D01*
X470999Y118933D01*
X469000D01*
X470333D02*
X471666Y117600D01*
X474998D02*
Y121599D01*
X472999Y119599D01*
X475665D01*
X361000Y218667D02*
Y222665D01*
X362999D01*
X363666Y221999D01*
Y220666D01*
X362999Y220000D01*
X361000D01*
X362333D02*
X363666Y218667D01*
X367665Y222665D02*
X366332Y221999D01*
X364999Y220666D01*
Y219333D01*
X365665Y218667D01*
X366998D01*
X367665Y219333D01*
Y220000D01*
X366998Y220666D01*
X364999D01*
X361000Y210833D02*
Y214832D01*
X362999D01*
X363666Y214166D01*
Y212833D01*
X362999Y212166D01*
X361000D01*
X362333D02*
X363666Y210833D01*
X364999Y214832D02*
X367665D01*
Y214166D01*
X364999Y211500D01*
Y210833D01*
X443500Y179500D02*
X439501D01*
Y181499D01*
X440168Y182166D01*
X441501D01*
X442167Y181499D01*
Y179500D01*
Y180833D02*
X443500Y182166D01*
X440168Y183499D02*
X439501Y184165D01*
Y185498D01*
X440168Y186164D01*
X440834D01*
X441501Y185498D01*
X442167Y186164D01*
X442834D01*
X443500Y185498D01*
Y184165D01*
X442834Y183499D01*
X442167D01*
X441501Y184165D01*
X440834Y183499D01*
X440168D01*
X441501Y184165D02*
Y185498D01*
X470400Y125700D02*
Y129699D01*
X472399D01*
X473066Y129032D01*
Y127699D01*
X472399Y127033D01*
X470400D01*
X471733D02*
X473066Y125700D01*
X474399Y126366D02*
X475065Y125700D01*
X476398D01*
X477065Y126366D01*
Y129032D01*
X476398Y129699D01*
X475065D01*
X474399Y129032D01*
Y128366D01*
X475065Y127699D01*
X477065D01*
X377000Y186500D02*
Y190499D01*
X378999D01*
X379666Y189832D01*
Y188499D01*
X378999Y187833D01*
X377000D01*
X378333D02*
X379666Y186500D01*
X380999D02*
X382332D01*
X381665D01*
Y190499D01*
X380999Y189832D01*
X384331D02*
X384997Y190499D01*
X386330D01*
X386997Y189832D01*
Y187167D01*
X386330Y186500D01*
X384997D01*
X384331Y187167D01*
Y189832D01*
X361000Y203000D02*
Y206999D01*
X362999D01*
X363666Y206332D01*
Y204999D01*
X362999Y204333D01*
X361000D01*
X362333D02*
X363666Y203000D01*
X364999D02*
X366332D01*
X365665D01*
Y206999D01*
X364999Y206332D01*
X370997Y203000D02*
X368331D01*
X370997Y205666D01*
Y206332D01*
X370330Y206999D01*
X368997D01*
X368331Y206332D01*
X435000Y179500D02*
X431001D01*
Y181499D01*
X431668Y182166D01*
X433001D01*
X433667Y181499D01*
Y179500D01*
Y180833D02*
X435000Y182166D01*
Y183499D02*
Y184832D01*
Y184165D01*
X431001D01*
X431668Y183499D01*
Y186831D02*
X431001Y187497D01*
Y188830D01*
X431668Y189497D01*
X432334D01*
X433001Y188830D01*
Y188164D01*
Y188830D01*
X433667Y189497D01*
X434334D01*
X435000Y188830D01*
Y187497D01*
X434334Y186831D01*
X452000Y179500D02*
X448001D01*
Y181499D01*
X448668Y182166D01*
X450001D01*
X450667Y181499D01*
Y179500D01*
Y180833D02*
X452000Y182166D01*
Y183499D02*
Y184832D01*
Y184165D01*
X448001D01*
X448668Y183499D01*
X452000Y188830D02*
X448001D01*
X450001Y186831D01*
Y189497D01*
X389000Y191200D02*
Y195199D01*
X390999D01*
X391666Y194532D01*
Y193199D01*
X390999Y192533D01*
X389000D01*
X390333D02*
X391666Y191200D01*
X392999D02*
X394332D01*
X393665D01*
Y195199D01*
X392999Y194532D01*
X398997Y195199D02*
X396331D01*
Y193199D01*
X397664Y193866D01*
X398330D01*
X398997Y193199D01*
Y191867D01*
X398330Y191200D01*
X396997D01*
X396331Y191867D01*
X387500Y254799D02*
Y251466D01*
X388166Y250800D01*
X389499D01*
X390166Y251466D01*
Y254799D01*
X391499Y250800D02*
X392832D01*
X392165D01*
Y254799D01*
X391499Y254132D01*
X490000Y203999D02*
Y200666D01*
X490666Y200000D01*
X491999D01*
X492666Y200666D01*
Y203999D01*
X496664Y200000D02*
X493999D01*
X496664Y202666D01*
Y203332D01*
X495998Y203999D01*
X494665D01*
X493999Y203332D01*
X481900Y149899D02*
Y146566D01*
X482566Y145900D01*
X483899D01*
X484566Y146566D01*
Y149899D01*
X485899Y149232D02*
X486565Y149899D01*
X487898D01*
X488564Y149232D01*
Y148566D01*
X487898Y147899D01*
X487232D01*
X487898D01*
X488564Y147233D01*
Y146566D01*
X487898Y145900D01*
X486565D01*
X485899Y146566D01*
X405000Y133999D02*
Y130666D01*
X405666Y130000D01*
X406999D01*
X407666Y130666D01*
Y133999D01*
X410998Y130000D02*
Y133999D01*
X408999Y131999D01*
X411664D01*
X367500Y132999D02*
Y130333D01*
X368833Y129000D01*
X370166Y130333D01*
Y132999D01*
X371499Y129000D02*
Y132999D01*
X373498D01*
X374165Y132332D01*
Y130999D01*
X373498Y130333D01*
X371499D01*
X372832D02*
X374165Y129000D01*
X375497D02*
X376830D01*
X376164D01*
Y132999D01*
X375497Y132332D01*
X321000Y132999D02*
Y130333D01*
X322333Y129000D01*
X323666Y130333D01*
Y132999D01*
X324999Y129000D02*
Y132999D01*
X326998D01*
X327664Y132332D01*
Y130999D01*
X326998Y130333D01*
X324999D01*
X326332D02*
X327664Y129000D01*
X331663D02*
X328997D01*
X331663Y131666D01*
Y132332D01*
X330997Y132999D01*
X329664D01*
X328997Y132332D01*
D27*
X446791Y216531D02*
Y218499D01*
Y217515D01*
X440888D01*
X441872Y216531D01*
X432242D02*
X431258Y217515D01*
Y219483D01*
X432242Y220467D01*
X433226D01*
X434210Y219483D01*
Y218499D01*
Y219483D01*
X435193Y220467D01*
X436177D01*
X437161Y219483D01*
Y217515D01*
X436177Y216531D01*
X383469Y128895D02*
X382485Y127911D01*
X380517D01*
X379533Y128895D01*
Y129879D01*
X380517Y130863D01*
X381501D01*
X380517D01*
X379533Y131847D01*
Y132831D01*
X380517Y133815D01*
X382485D01*
X383469Y132831D01*
X389533Y133815D02*
X393468D01*
X389533Y129879D01*
Y128895D01*
X390517Y127911D01*
X392485D01*
X393468Y128895D01*
X402484Y133815D02*
X400516D01*
X401500D01*
Y127911D01*
X402484Y128895D01*
X338968Y128895D02*
X337985Y127911D01*
X336017D01*
X335033Y128895D01*
Y129879D01*
X336017Y130863D01*
X337001D01*
X336017D01*
X335033Y131847D01*
Y132831D01*
X336017Y133815D01*
X337985D01*
X338968Y132831D01*
X345033Y133815D02*
X348969D01*
X345033Y129879D01*
Y128895D01*
X346017Y127911D01*
X347985D01*
X348969Y128895D01*
X357984Y133815D02*
X356016D01*
X357000D01*
Y127911D01*
X357984Y128895D01*
D28*
X475248Y191001D02*
D03*
D29*
X335748Y178001D02*
D03*
Y192501D02*
D03*
Y163501D02*
D03*
D30*
X308011Y242748D02*
D03*
M02*
