M48
;Layer_Color=9474304
;FILE_FORMAT=2:5
INCH,LZ
;TYPE=PLATED
T1F00S00C0.02800
T2F00S00C0.03150
T3F00S00C0.03937
T4F00S00C0.04700
T5F00S00C0.05500
%
T01
X0306Y01185
Y014225
X0316
Y01185
X0337Y0147
X0357
X0379Y01505
X039Y0154
Y0144
X042
Y0154
X0432Y01435
X0441
X045
X04588Y01273
Y01193
Y01113
X04425Y0115
X04225
X04888Y01113
Y01193
Y01273
X05Y01445
Y01545
X047
Y01445
Y01645
Y01745
X05
Y01645
Y02125
Y02225
Y02325
Y02425
X04963Y0253
Y0261
X047Y02425
Y02325
Y02225
Y02125
X0454Y02325
X0434
X042
Y02425
X0418Y02605
X0434Y026
X0454
X04663Y0261
Y0253
X042Y02225
Y02125
X04215Y0185
X042Y0174
Y0164
X0432Y01735
X0441
X045
X039Y0174
Y0164
X03915Y0185
X0379Y01805
X039Y02125
Y02225
Y02325
Y02425
X0388Y02605
X0356Y02625
Y02425
X03555Y02285
Y02205
Y02125
Y0204
X03255
Y02125
Y02205
Y02285
X03295Y02425
Y02525
X0316Y0166
X0306
X031Y0194
Y0214
T02
X0434Y0207
X0439
X0444
T03
X0337Y0116
X0347
X0357
X03815
X03915
X04015
T04
X01585Y0145
X02835
X04695Y0191
X04995
X036Y01925
Y0178
Y01635
X033
Y0178
Y01925
X02835Y0205
Y023
X0308012Y0237
Y0267
X02835Y017
X01585Y023
T05
X012Y013
Y015
M30
