G04 Layer_Physical_Order=1*
G04 Layer_Color=255*
%FSLAX25Y25*%
%MOIN*%
G70*
G01*
G75*
%ADD10C,0.02000*%
%ADD11C,0.01000*%
%ADD12C,0.11900*%
%ADD13C,0.05800*%
%ADD14C,0.07700*%
%ADD15R,0.05800X0.05800*%
%ADD16R,0.05800X0.05800*%
%ADD17R,0.07700X0.07700*%
%ADD18R,0.07700X0.07700*%
%ADD19R,0.08500X0.08500*%
%ADD20C,0.08500*%
%ADD21O,0.03937X0.07874*%
%ADD22R,0.03937X0.07874*%
%ADD23C,0.06299*%
%ADD24R,0.06299X0.06299*%
D10*
X330400Y217400D02*
Y242500D01*
X385100Y132400D02*
X401500Y116000D01*
X385100Y132400D02*
Y154657D01*
X372500Y167257D02*
X385100Y154657D01*
X372500Y167257D02*
Y180800D01*
X368000Y185300D02*
X372500Y180800D01*
X337200Y185300D02*
X368000D01*
X330000Y192500D02*
X337200Y185300D01*
X308012Y254512D02*
Y267000D01*
X283500Y230000D02*
X308012Y254512D01*
X450000Y161500D02*
Y173500D01*
X432000Y143500D02*
X450000Y161500D01*
X422500Y134000D02*
X432000Y143500D01*
X422500Y115000D02*
Y134000D01*
X379000Y165000D02*
X390000Y154000D01*
X379000Y165000D02*
Y180500D01*
X450000Y122500D02*
Y143500D01*
X442500Y115000D02*
X450000Y122500D01*
X379000Y128500D02*
X391500Y116000D01*
X379000Y128500D02*
Y150500D01*
X310000Y170000D02*
Y194000D01*
X306000Y166000D02*
X310000Y170000D01*
X390000Y242500D02*
X408000Y224500D01*
Y216500D02*
Y224500D01*
Y216500D02*
X412000Y212500D01*
X420000D01*
X490650Y183850D02*
X500000Y174500D01*
X490650Y183850D02*
Y233150D01*
X500000Y242500D01*
X390000Y144000D02*
X396400Y150400D01*
Y206100D01*
X390000Y212500D02*
X396400Y206100D01*
X356000Y262500D02*
X358900Y265400D01*
X428600D01*
X434000Y260000D01*
X420000Y174000D02*
X426400Y180400D01*
Y236100D01*
X420000Y242500D02*
X426400Y236100D01*
X439000Y187430D02*
Y207000D01*
X427100Y175530D02*
X439000Y187430D01*
X427100Y172000D02*
Y175530D01*
X424200Y169100D02*
X427100Y172000D01*
X417000Y169100D02*
X424200D01*
X415100Y171000D02*
X417000Y169100D01*
X415100Y171000D02*
Y178600D01*
X421500Y185000D01*
X488800Y127300D02*
Y164000D01*
X494400Y169600D01*
X502500D01*
X504900Y172000D01*
Y178000D01*
X503500Y179400D02*
X504900Y178000D01*
X501200Y179400D02*
X503500D01*
X493650Y186950D02*
X501200Y179400D01*
X493650Y186950D02*
Y226150D01*
X500000Y232500D01*
X310000Y214000D02*
X320600Y203400D01*
Y201900D02*
Y203400D01*
Y201900D02*
X330000Y192500D01*
X385100Y168900D02*
X390000Y164000D01*
X385100Y168900D02*
Y194300D01*
X375400Y204000D02*
X385100Y194300D01*
X355500Y204000D02*
X375400D01*
X357000Y140500D02*
Y147000D01*
Y140500D02*
X381500Y116000D01*
X318700Y174800D02*
X330000Y163500D01*
X318700Y174800D02*
Y194800D01*
X283500Y230000D02*
X318700Y194800D01*
X355500Y204000D02*
X372100Y220600D01*
Y244600D01*
X388000Y260500D01*
X158500Y188500D02*
Y230000D01*
X120000Y150000D02*
X158500Y188500D01*
X322700Y130300D02*
X337000Y116000D01*
X322700Y130300D02*
Y159300D01*
X316000Y166000D02*
X322700Y159300D01*
X347000Y116000D02*
Y150500D01*
X360000Y163500D01*
X444000Y179500D02*
Y207000D01*
Y179500D02*
X450000Y173500D01*
X458800Y119300D02*
X463700Y124200D01*
Y135800D01*
X462100Y137400D02*
X463700Y135800D01*
X462100Y137400D02*
Y224600D01*
X470000Y232500D01*
X483500Y124600D02*
X488800Y119300D01*
X483500Y124600D02*
Y248000D01*
X478500Y253000D02*
X483500Y248000D01*
X466300Y253000D02*
X478500D01*
X329500Y242500D02*
X330400D01*
X325500Y212500D02*
X330400Y217400D01*
X496300Y253000D02*
X500000D01*
X504900Y248100D01*
Y227400D02*
Y248100D01*
X500000Y222500D02*
X504900Y227400D01*
X500000Y164500D02*
X502100Y166600D01*
X504500D01*
X507900Y170000D01*
Y182600D01*
X499500Y191000D02*
X507900Y182600D01*
X470000Y144500D02*
X475400Y149900D01*
Y207100D01*
X470000Y212500D02*
X475400Y207100D01*
X488800Y111300D02*
X493700Y116200D01*
Y122400D01*
X488800Y127300D02*
X493700Y122400D01*
X308012Y226488D02*
Y237000D01*
Y226488D02*
X310000Y224500D01*
Y214000D02*
Y224500D01*
X360000Y163500D02*
Y178000D01*
X316000Y118500D02*
Y142250D01*
X355500Y212500D02*
Y220500D01*
X356000Y235700D02*
Y242500D01*
X355500Y235200D02*
X356000Y235700D01*
X355500Y228500D02*
Y235200D01*
X391500Y180200D02*
Y185000D01*
X390000Y178700D02*
X391500Y180200D01*
X390000Y174000D02*
Y178700D01*
X434000Y232500D02*
Y260000D01*
Y207000D02*
Y232500D01*
X325500Y204000D02*
Y212500D01*
X283500Y170000D02*
Y205000D01*
X306000Y118500D02*
Y142250D01*
Y166000D01*
X470000Y232500D02*
Y242500D01*
X420000Y222500D02*
Y232500D01*
X325500Y220500D02*
Y228500D01*
X418000Y252500D02*
Y260500D01*
Y252500D02*
X420000Y250500D01*
Y242500D02*
Y250500D01*
D11*
X112403Y181493D02*
X106405D01*
X112403Y185492D01*
X106405D01*
X112403Y187491D02*
Y189491D01*
Y188491D01*
X108404D01*
Y187491D01*
Y196488D02*
Y193490D01*
X109404Y192490D01*
X111403D01*
X112403Y193490D01*
Y196488D01*
Y198488D02*
X106405D01*
X110404D02*
X108404Y201487D01*
X110404Y198488D02*
X112403Y201487D01*
X106405Y210484D02*
X112403D01*
Y213483D01*
X111403Y214483D01*
X110404D01*
X109404Y213483D01*
Y210484D01*
Y213483D01*
X108404Y214483D01*
X107405D01*
X106405Y213483D01*
Y210484D01*
X112403Y217482D02*
Y219481D01*
X111403Y220481D01*
X109404D01*
X108404Y219481D01*
Y217482D01*
X109404Y216482D01*
X111403D01*
X112403Y217482D01*
X108404Y222480D02*
X111403D01*
X112403Y223480D01*
Y226479D01*
X108404D01*
Y228478D02*
X112403D01*
X110404D01*
X109404Y229478D01*
X108404Y230477D01*
Y231477D01*
Y234476D02*
X112403D01*
X110404D01*
X109404Y235476D01*
X108404Y236476D01*
Y237475D01*
X112403Y243473D02*
Y241474D01*
X111403Y240474D01*
X109404D01*
X108404Y241474D01*
Y243473D01*
X109404Y244473D01*
X110404D01*
Y240474D01*
X116003Y173496D02*
Y169497D01*
X119002D01*
Y171497D01*
Y169497D01*
X122001D01*
X118002Y175495D02*
X122001D01*
X120001D01*
X119002Y176495D01*
X118002Y177495D01*
Y178494D01*
Y182493D02*
Y184492D01*
X119002Y185492D01*
X122001D01*
Y182493D01*
X121001Y181493D01*
X120001Y182493D01*
Y185492D01*
X122001Y187491D02*
X118002D01*
Y190490D01*
X119002Y191490D01*
X122001D01*
Y193490D02*
X116003D01*
X120001D02*
X118002Y196488D01*
X120001Y193490D02*
X122001Y196488D01*
Y205486D02*
X116003D01*
X118002Y207485D01*
X116003Y209484D01*
X122001D01*
Y212483D02*
Y214483D01*
X121001Y215482D01*
X119002D01*
X118002Y214483D01*
Y212483D01*
X119002Y211484D01*
X121001D01*
X122001Y212483D01*
X118002Y217482D02*
X122001D01*
X120001D01*
X119002Y218481D01*
X118002Y219481D01*
Y220481D01*
Y223480D02*
X122001D01*
X120001D01*
X119002Y224480D01*
X118002Y225479D01*
Y226479D01*
X122001Y229478D02*
Y231477D01*
Y230477D01*
X118002D01*
Y229478D01*
X122001Y234476D02*
Y237475D01*
X121001Y238475D01*
X120001Y237475D01*
Y235476D01*
X119002Y234476D01*
X118002Y235476D01*
Y238475D01*
X122001Y240474D02*
Y243473D01*
X121001Y244473D01*
X120001Y243473D01*
Y241474D01*
X119002Y240474D01*
X118002Y241474D01*
Y244473D01*
X122001Y249471D02*
Y247472D01*
X121001Y246472D01*
X119002D01*
X118002Y247472D01*
Y249471D01*
X119002Y250471D01*
X120001D01*
Y246472D01*
X118002Y252470D02*
X121001D01*
X122001Y253470D01*
Y256469D01*
X123000D01*
X124000Y255469D01*
Y254470D01*
X122001Y256469D02*
X118002D01*
D12*
X507000Y110000D02*
D03*
Y265000D02*
D03*
X110000Y110000D02*
D03*
Y265000D02*
D03*
D13*
X388000Y260500D02*
D03*
X418000D02*
D03*
X466300Y261000D02*
D03*
X496300D02*
D03*
X356000Y262500D02*
D03*
Y242500D02*
D03*
X434000Y260000D02*
D03*
X454000D02*
D03*
X434000Y232500D02*
D03*
X454000D02*
D03*
X442500Y115000D02*
D03*
X422500D02*
D03*
X329500Y242500D02*
D03*
X310000Y194000D02*
D03*
Y214000D02*
D03*
X337000Y147000D02*
D03*
X357000D02*
D03*
X316000Y118500D02*
D03*
Y142250D02*
D03*
Y166000D02*
D03*
X458800Y111300D02*
D03*
X488800D02*
D03*
X355500Y228500D02*
D03*
X325500D02*
D03*
X466300Y253000D02*
D03*
X496300D02*
D03*
X458800Y119300D02*
D03*
X488800D02*
D03*
X355500Y220500D02*
D03*
X325500D02*
D03*
Y212500D02*
D03*
X355500D02*
D03*
X441000Y143500D02*
D03*
Y173500D02*
D03*
X488800Y127300D02*
D03*
X458800D02*
D03*
X379000Y150500D02*
D03*
Y180500D02*
D03*
X325500Y204000D02*
D03*
X355500D02*
D03*
X432000Y143500D02*
D03*
Y173500D02*
D03*
X450000Y143500D02*
D03*
Y173500D02*
D03*
X421500Y185000D02*
D03*
X391500D02*
D03*
X390000Y232500D02*
D03*
Y222500D02*
D03*
Y212500D02*
D03*
X420000Y242500D02*
D03*
Y232500D02*
D03*
Y222500D02*
D03*
Y212500D02*
D03*
X470000Y232500D02*
D03*
Y222500D02*
D03*
Y212500D02*
D03*
X500000Y242500D02*
D03*
Y232500D02*
D03*
Y222500D02*
D03*
Y212500D02*
D03*
X470000Y164500D02*
D03*
Y154500D02*
D03*
Y144500D02*
D03*
X500000Y174500D02*
D03*
Y164500D02*
D03*
Y154500D02*
D03*
Y144500D02*
D03*
X390000Y164000D02*
D03*
Y154000D02*
D03*
Y144000D02*
D03*
X420000Y174000D02*
D03*
Y164000D02*
D03*
Y154000D02*
D03*
Y144000D02*
D03*
D14*
X283500Y230000D02*
D03*
Y205000D02*
D03*
Y170000D02*
D03*
Y145000D02*
D03*
X158500Y230000D02*
D03*
Y145000D02*
D03*
X499500Y191000D02*
D03*
X360000Y178000D02*
D03*
Y192500D02*
D03*
Y163500D02*
D03*
X308012Y267000D02*
D03*
D15*
X329500Y252500D02*
D03*
D16*
X306000Y118500D02*
D03*
Y142250D02*
D03*
Y166000D02*
D03*
X390000Y242500D02*
D03*
X470000D02*
D03*
Y174500D02*
D03*
X390000Y174000D02*
D03*
D17*
X469500Y191000D02*
D03*
X330000Y178000D02*
D03*
Y192500D02*
D03*
Y163500D02*
D03*
D18*
X308012Y237000D02*
D03*
D19*
X120000Y150000D02*
D03*
D20*
Y130000D02*
D03*
D21*
X434000Y207000D02*
D03*
X439000D02*
D03*
D22*
X444000D02*
D03*
D23*
X381500Y116000D02*
D03*
X391500D02*
D03*
X337000D02*
D03*
X347000D02*
D03*
D24*
X401500D02*
D03*
X357000D02*
D03*
M02*
